<svg width="28" height="28" viewBox="0 0 28 28" xmlns="http://www.w3.org/2000/svg" class="video-fav-icon video-toolbar-item-icon" data-v-5f171eb7=""><path fill-rule="evenodd" clip-rule="evenodd" d="M19.8071 9.26152C18.7438 9.09915 17.7624 8.36846 17.3534 7.39421L15.4723 3.4972C14.8998 2.1982 13.1004 2.1982 12.4461 3.4972L10.6468 7.39421C10.1561 8.36846 9.25639 9.09915 8.19315 9.26152L3.94016 9.91102C2.63155 10.0734 2.05904 11.6972 3.04049 12.6714L6.23023 15.9189C6.96632 16.6496 7.29348 17.705 7.1299 18.7605L6.39381 23.307C6.14844 24.6872 7.62063 25.6614 8.84745 25.0119L12.4461 23.0634C13.4276 22.4951 14.6544 22.4951 15.6359 23.0634L19.2345 25.0119C20.4614 25.6614 21.8518 24.6872 21.6882 23.307L20.8703 18.7605C20.7051 17.705 21.0339 16.6496 21.77 15.9189L24.9597 12.6714C25.9412 11.6972 25.3687 10.0734 24.06 9.91102L19.8071 9.26152Z" fill="currentColor"></path></svg>