<?xml version="1.0" standalone="no"?><!DOCTYPE svg PUBLIC "-//W3C//DTD SVG 1.1//EN"
    "http://www.w3.org/Graphics/SVG/1.1/DTD/svg11.dtd">
<svg class="icon" viewBox="54 0 1024 1024" version="1.1"
    xmlns="http://www.w3.org/2000/svg" xmlns:xlink="http://www.w3.org/1999/xlink"
    width="210.546875" height="200">
    <path
        d="M658.245834 1024C418.607781 1024 36.569213 1024 36.569213 1024 12.177548 1024 0 1007.507285 0 987.430787L0 438.892592C0 418.816094 17.077823 402.323379 36.569213 402.323379L255.98449 402.323379C275.841574 402.323379 311.386848 409.27153 323.89352 422.984985 366.386945 387.841971 478.946982 278.390316 478.946982 105.38137 478.946982 1.707651 581.560194 1.159113 581.560194 1.159113 581.560194 1.159113 767.368365-30.875518 767.368365 244.30781 767.368365 304.025335 731.384259 402.323379 731.384259 402.323379L841.091898 402.323379C841.091898 402.323379 1150.796563 348.712913 1060.507176 694.877084 978.9944 1007.470715 899.310085 1024 658.245834 1024L658.245834 1024ZM73.138426 475.461805 73.138426 950.861574 219.415278 950.861574 255.98449 950.861574 255.98449 475.461805 255.98449 475.461805 73.138426 475.461805ZM841.091898 475.461805 585.107408 475.461805C585.107408 475.461805 698.947367 367.509489 698.947367 226.937434 698.947367 86.365379 637.693936 70.640618 598.674586 70.640618 559.655236 70.640618 547.36798 83.110719 547.36798 105.38137 547.36798 365.315336 329.122916 512.031018 329.122916 512.031018L329.122916 950.861574C329.122916 950.861574 473.827293 950.861574 658.245834 950.861574 842.664375 950.861574 920.776213 945.705315 987.36875 694.877084 1060.580315 419.218356 841.091898 475.461805 841.091898 475.461805L841.091898 475.461805Z"
        fill="#333333"></path>
</svg>