<?xml version="1.0" standalone="no"?><!DOCTYPE svg PUBLIC "-//W3C//DTD SVG 1.1//EN"
    "http://www.w3.org/Graphics/SVG/1.1/DTD/svg11.dtd">
<svg class="icon" width="200px" height="200.00px" viewBox="0 0 1024 1024" version="1.1"
    xmlns="http://www.w3.org/2000/svg">
    <path fill="#333333"
        d="M345.9,1023.9L151.8,1023.9c-23.1,0 -41.8,-7.7 -52.9,-28.8s-6,-41.4 7,-59.9c11.9,-17.1 24.4,-34 37.1,-50.3 6.2,-7.9 5.1,-12.7 -1.5,-19.7C64,784 17.4,687.4 4.1,576.4c-17.7,-149.4 21.9,-283.1 120.2,-397.9 85.3,-99.5 194,-158.2 323.8,-174.4 270.2,-33.7 512.6,145 564.5,401.8C1051.5,599.7 994.6,765.5 847.5,898.3c-76.9,69.6 -168.8,108.3 -271.3,122.1a338.7,338.7 0,0 1,-48 3.5c-60.8,-0.3 -121.6,-0 -182.4,0zM382.5,942.5h96.4c40.8,0 81.4,0 121.9,-8.6 215.3,-45.3 373.1,-251.3 337.1,-487.4C905.2,232.4 719.5,82.6 518.4,81.9c-77.3,-0.3 -150.6,15.4 -216.8,55.1C152.8,226.3 77.9,357.8 82.6,532.4c2.3,83.9 29.9,159.7 77.7,228.3 24.8,35.6 55.3,65.8 88.6,93.2 8.4,7 9.9,12 2.5,21.1 -13.9,17.2 -26.6,35.4 -39.5,53.4 -2.6,3.5 -8.7,7 -5.8,11.9 2.6,4.3 8.8,2.1 13.5,2.1q81.4,0.1 162.8,0.1z" />
    <path fill="#333333"
        d="M567.7,511.6a55.7,55.7 0,1 1,-55.7 -54.9,54.4 54.4,0 0,1 55.7,54.9zM266.2,511.3a54,54 0,0 1,55.7 -54.7,55.7 55.7,0 1,1 -0.5,111.2c-32,-0.1 -55.4,-24.1 -55.2,-56.5zM758,513.2a54,54 0,0 1,-55.7 54.6,55.7 55.7,0 1,1 0.7,-111.2c32,0.1 55.3,24.1 55,56.6z" />
</svg>