<?xml version="1.0" standalone="no"?><!DOCTYPE svg PUBLIC "-//W3C//DTD SVG 1.1//EN" "http://www.w3.org/Graphics/SVG/1.1/DTD/svg11.dtd"><svg class="icon" width="200px" height="200.00px" viewBox="0 0 1024 1024" version="1.1" xmlns="http://www.w3.org/2000/svg"><path fill="#ffffff" d="M800 128H224C134.4 128 64 198.4 64 288v448c0 89.6 70.4 160 160 160h576c89.6 0 160-70.4 160-160V288c0-89.6-70.4-160-160-160z m96 608c0 54.4-41.6 96-96 96H224c-54.4 0-96-41.6-96-96V288c0-54.4 41.6-96 96-96h576c54.4 0 96 41.6 96 96v448zM419.2 544c0 51.2-3.2 108.8-83.2 108.8S252.8 595.2 252.8 544v-217.6H192v243.2c0 96 51.2 140.8 140.8 140.8 89.6 0 147.2-48 147.2-144v-240h-60.8V544zM710.4 326.4h-156.8V704h60.8v-147.2h96c102.4 0 121.6-67.2 121.6-115.2 0-44.8-19.2-115.2-121.6-115.2z m-3.2 179.2h-92.8V384h92.8c32 0 60.8 12.8 60.8 60.8 0 44.8-32 60.8-60.8 60.8z" /></svg>