<?xml version="1.0" standalone="no"?><!DOCTYPE svg PUBLIC "-//W3C//DTD SVG 1.1//EN" "http://www.w3.org/Graphics/SVG/1.1/DTD/svg11.dtd"><svg class="icon" width="200px" height="200.00px" viewBox="0 0 1024 1024" version="1.1" xmlns="http://www.w3.org/2000/svg"><path d="M699.050667 57.002667a42.666667 42.666667 0 0 1 62.826666 57.6l-2.496 2.730666-72.832 72.832H832a128 128 0 0 1 128 128v295.637334a212.693333 212.693333 0 0 1 64 152.362666c0 117.824-95.509333 213.333333-213.333333 213.333334a212.394667 212.394667 0 0 1-127.978667-42.624L192 936.832a128 128 0 0 1-128-128v-490.666667a128 128 0 0 1 128-128h142.314667l-69.696-69.717333a42.666667 42.666667 0 1 1 60.330666-60.330667l130.048 130.048h110.848l133.205334-133.162666zM810.666667 616.832a149.333333 149.333333 0 1 0 0 298.666667 149.333333 149.333333 0 0 0 0-298.666667zM746.666667 704a32 32 0 0 1 45.248 0L810.666667 722.752 829.418667 704a32 32 0 1 1 45.248 45.248L855.914667 768l18.752 18.752a32 32 0 0 1-45.248 45.248L810.666667 813.248 791.914667 832a32 32 0 0 1-45.248-45.248L765.418667 768 746.666667 749.248a32 32 0 0 1 0-45.248zM832 275.498667H192a42.666667 42.666667 0 0 0-42.56 39.488l-0.106667 3.2v490.666666a42.666667 42.666667 0 0 0 39.466667 42.538667l3.2 0.106667 423.104 0.042666a212.608 212.608 0 0 1-16.938667-104.32l0.064-0.362666c-1.216 10.88-9.109333 16.704-21.226666 16.704-13.418667 0-21.888-6.058667-22.954667-17.258667l-0.106667-2.474667-0.021333-65.28h-97.301333l-2.453334-0.149333a15.829333 15.829333 0 0 1-10.816-5.824c-2.56 32.256-7.957333 52.778667-16.426666 62.016-18.773333 22.549333-50.986667 24.96-95.850667 8.426667-13.269333-5.888-17.365333-17.365333-11.306667-32.362667 6.08-10.624 17.002667-13.738667 31.146667-9.472 23.893333 8.96 36.586667 8.064 40.234667 0.042667 3.989333-8.96 6.698667-30.08 7.893333-63.445334l1.002667-6.826666a65.28 65.28 0 0 0 0.576-7.573334c0.789333-11.136-1.173333-14.912-7.061334-14.890666l-1.557333 0.085333h-38.144l-3.434667 0.085333c-18.218667-0.064-28.202667-10.325333-28.266666-28.181333l0.106666-3.434667 1.664-81.365333-0.085333-3.626667c0.064-20.138667 10.794667-31.253333 29.738667-31.36l3.413333 0.085334 20.736 0.064 2.133333-0.32c5.589333-1.109333 8.469333-4.693333 8.981334-12.330667l0.085333-2.688v-29.76l-0.085333-2.389333c-0.426667-5.354667-2.24-7.616-6.698667-8.042667l-1.813333-0.085333-51.114667-0.085334-2.666667-0.490666c-10.453333-2.474667-15.957333-10.602667-15.914666-23.189334 1.344-12.096 7.914667-19.498667 18.602666-20.565333l2.773334-0.128h63.168l3.605333-0.085333c22.442667 0.128 34.581333 12.522667 34.709333 34.581333l-0.085333 3.562667v66.816l-0.085333 3.946666c-0.96 21.589333-10.261333 33.898667-26.666667 34.069334l-2.986667-0.085334h-28.8l-1.728-0.149333c-2.624-0.042667-3.584 1.024-3.264 6.656l0.192 2.346667-1.728 42.261333-0.32 2.346667c-0.682667 6.634667 0.405333 8.234667 7.04 7.36l1.92-0.298667 40.789334 0.064 3.093333 0.384c15.061333 2.56 23.146667 13.952 24.106667 32.128l0.085333 3.733333c0.213333 14.357333 0.213333 27.584-0.085333 39.68a15.872 15.872 0 0 1 9.130666-4.138666l2.901334-0.170667h96.917333v-25.557333h-60.096l-3.434667 0.106666c-20.48-0.149333-31.488-12.053333-31.552-32.917333l0.106667-3.562667v-142.848l-0.277333-3.584c-1.066667-21.546667 10.048-32.96 30.08-31.914666l3.242666 0.277333h8.32l-2.453333-3.989333c-2.56-3.989333-4.906667-7.530667-7.104-10.624l-2.133333-2.944-2.048-2.666667c-6.997333-11.178667-4.586667-22.016 6.122666-30.293333l2.432-1.749334 0.682667-0.405333c11.541333-5.76 22.485333-3.413333 31.786667 7.594667 5.973333 10.624 11.733333 20.650667 17.301333 30.08l9.024 14.976h39.616l19.2-29.290667c2.496-6.293333 5.12-10.88 7.466667-13.141333 8.448-11.264 19.989333-14.336 33.514666-8.256 11.882667 7.445333 14.357333 18.986667 6.826667 32.490666l-12.906667 18.197334h14.613334l3.114666 0.149333c17.429333 1.365333 26.88 13.482667 27.946667 33.984l0.085333 3.946667v140.202666l-0.106666 3.626667c-0.277333 4.416-1.066667 8.384-2.304 11.946667A211.968 211.968 0 0 1 810.666667 552.832c22.293333 0 43.797333 3.413333 64 9.770667V318.165333a42.666667 42.666667 0 0 0-39.466667-42.538666l-3.2-0.128zM616.106667 678.549333h-17.706667v65.621334l-0.106667 1.728a211.989333 211.989333 0 0 1 17.813334-67.349334z m49.728-69.013333l-1.813334 0.277333a52.906667 52.906667 0 0 1-3.413333 0.32l-3.626667 0.106667H598.4v23.850667l44.693333 0.042666a214.613333 214.613333 0 0 1 22.741334-24.597333z m-111.914667-82.645333h-48.853333v27.306666l-0.170667 2.773334-0.021333 2.133333c0.064 4.629333 0.896 6.357333 3.157333 6.698667l1.066667 0.064 1.237333-0.106667h43.584v-38.869333z m94.997333 0H598.4v37.205333h41.941333l1.984-0.085333c3.690667-0.32 5.546667-1.706667 6.272-4.821334l0.256-1.706666 0.085334-1.984-0.021334-28.586667z m-4.48-85.248l-1.258666 0.021333-2.837334 0.234667H598.4v38.848h48.853333l0.021334-34.069334 0.149333-1.770666v-1.045334c-0.128-1.237333-0.576-1.898667-1.856-2.133333l-1.130667-0.085333z m-136.490666 0.064h-1.045334l-0.810666 0.085333c-0.96 0.213333-1.28 0.789333-1.28 2.304l0.085333 1.344 0.170667 1.728v33.578667h48.853333v-38.826667l-44.117333-0.042667-1.856-0.170666z" fill="#121212" fill-opacity=".88" /></svg>