<svg width="28" height="28" viewBox="0 0 28 28" xmlns="http://www.w3.org/2000/svg" class="video-coin-icon video-toolbar-item-icon" data-v-b72e4a72=""><path fill-rule="evenodd" clip-rule="evenodd" d="M14.045 25.5454C7.69377 25.5454 2.54504 20.3967 2.54504 14.0454C2.54504 7.69413 7.69377 2.54541 14.045 2.54541C20.3963 2.54541 25.545 7.69413 25.545 14.0454C25.545 17.0954 24.3334 20.0205 22.1768 22.1771C20.0201 24.3338 17.095 25.5454 14.045 25.5454ZM9.66202 6.81624H18.2761C18.825 6.81624 19.27 7.22183 19.27 7.72216C19.27 8.22248 18.825 8.62807 18.2761 8.62807H14.95V10.2903C17.989 10.4444 20.3766 12.9487 20.3855 15.9916V17.1995C20.3854 17.6997 19.9799 18.1052 19.4796 18.1052C18.9793 18.1052 18.5738 17.6997 18.5737 17.1995V15.9916C18.5667 13.9478 16.9882 12.2535 14.95 12.1022V20.5574C14.95 21.0577 14.5444 21.4633 14.0441 21.4633C13.5437 21.4633 13.1382 21.0577 13.1382 20.5574V12.1022C11.1 12.2535 9.52148 13.9478 9.51448 15.9916V17.1995C9.5144 17.6997 9.10883 18.1052 8.60856 18.1052C8.1083 18.1052 7.70273 17.6997 7.70265 17.1995V15.9916C7.71158 12.9487 10.0992 10.4444 13.1382 10.2903V8.62807H9.66202C9.11309 8.62807 8.66809 8.22248 8.66809 7.72216C8.66809 7.22183 9.11309 6.81624 9.66202 6.81624Z" fill="currentColor"></path></svg>