<?xml version="1.0" standalone="no"?><!DOCTYPE svg PUBLIC "-//W3C//DTD SVG 1.1//EN" "http://www.w3.org/Graphics/SVG/1.1/DTD/svg11.dtd"><svg class="icon" width="200px" height="200.00px" viewBox="0 0 1024 1024" version="1.1" xmlns="http://www.w3.org/2000/svg"><path fill="#ffffff" d="M800 128H224c-89.6 0-160 70.4-160 160v448c0 89.6 70.4 160 160 160h576c89.6 0 160-70.4 160-160V288c0-89.6-70.4-160-160-160z m96 608c0 54.4-41.6 96-96 96H224c-54.4 0-96-41.6-96-96V288c0-54.4 41.6-96 96-96h576c54.4 0 96 41.6 96 96v448zM240 384h64v64h-64z m128 0h384v64H368z m64 192h352v64H432z m-128 0h64v64h-64z" /></svg>