<svg t="1740406855807" class="icon" viewBox="0 0 1024 1024" version="1.1" xmlns="http://www.w3.org/2000/svg" p-id="684" width="200" height="200"><path d="M974.991554 109.146486 647.781177 109.146486c0-2.225921 2.225921-4.451842 2.225921-6.677763 0-55.648023-46.74434-102.392363-102.392363-102.392363l-66.777628 0C422.963163-2.14956 378.444744 44.594779 378.444744 100.242803c0 2.225921 0 4.451842 2.225921 6.677763L49.008446 106.920565c-22.259209 0-40.066577 17.807367-40.066577 40.066577s17.807367 40.066577 40.066577 40.066577l77.907233 0 0 636.613387c0 111.296047 91.262758 200.332884 200.332884 200.332884l389.536163 0c111.296047 0 200.332884-91.262758 200.332884-200.332884L917.11761 189.27964l60.099865 0c22.259209 0 40.066577-17.807367 40.066577-40.066577S997.250763 109.146486 974.991554 109.146486zM458.577898 100.242803c0-11.129605 11.129605-22.259209 22.259209-22.259209l66.777628 0c11.129605 0 22.259209 11.129605 22.259209 22.259209 0 2.225921 0 4.451842 2.225921 6.677763l-113.521968 0C456.351977 106.920565 458.577898 102.468724 458.577898 100.242803zM836.984456 825.893026c0 66.777628-53.422102 120.19973-120.19973 120.19973L327.248563 946.092757c-66.777628 0-120.19973-53.422102-120.19973-120.19973L207.048832 189.27964l629.935624 0L836.984456 825.893026zM411.833558 756.889478c22.259209 0 40.066577-17.807367 40.066577-40.066577l0-311.62893c0-22.259209-17.807367-40.066577-40.066577-40.066577s-40.066577 17.807367-40.066577 40.066577l0 311.62893C371.766981 739.08211 389.574349 756.889478 411.833558 756.889478zM632.19973 756.889478c22.259209 0 40.066577-17.807367 40.066577-40.066577l0-311.62893c0-22.259209-17.807367-40.066577-40.066577-40.066577-22.259209 0-40.066577 17.807367-40.066577 40.066577l0 311.62893C592.133154 739.08211 609.940521 756.889478 632.19973 756.889478z" fill="#272636" p-id="685"></path></svg>