<?xml version="1.0" standalone="no"?><!DOCTYPE svg PUBLIC "-//W3C//DTD SVG 1.1//EN" "http://www.w3.org/Graphics/SVG/1.1/DTD/svg11.dtd"><svg class="icon" width="200px" height="200.00px" viewBox="0 0 1024 1024" version="1.1" xmlns="http://www.w3.org/2000/svg"><path fill="#333333" d="M710.549333 384.810667a12409.045333 12409.045333 0 0 0 47.466667-0.32l8.746667-0.085334c83.989333-0.618667 141.44 67.584 126.72 150.229334L847.296 794.026667c-10.026667 56.448-63.914667 101.546667-121.130667 101.589333L298.624 896a42.730667 42.730667 0 0 1-42.666667-42.410667l-0.810666-383.978666a42.666667 42.666667 0 0 1 42.026666-42.666667l3.157334-0.064c5.226667-0.042667 11.797333-0.042667 19.626666 0 91.946667 0.768 170.88-86.698667 170.709334-170.944-0.149333-86.741333 39.786667-126.762667 106.453333-127.573333 62.250667-0.746667 106.602667 59.605333 107.349333 149.12 0.213333 26.602667-6.293333 73.237333-14.506666 107.434666 6.186667 0 13.077333-0.042667 20.586666-0.085333z m-497.706666 63.232L213.333333 874.624A21.312 21.312 0 0 1 191.786667 896H149.525333A21.333333 21.333333 0 0 1 128 874.624l0.042667-426.581333A21.269333 21.269333 0 0 1 149.44 426.666667h41.984c11.669333 0 21.418667 9.578667 21.418667 21.376z"  /></svg>