<?xml version="1.0" standalone="no"?><!DOCTYPE svg PUBLIC "-//W3C//DTD SVG 1.1//EN" "http://www.w3.org/Graphics/SVG/1.1/DTD/svg11.dtd"><svg class="icon" width="200px" height="200.00px" viewBox="0 0 1024 1024" version="1.1" xmlns="http://www.w3.org/2000/svg"><path fill="#333333" d="M170.667 149.333h682.666a42.667 42.667 0 0 1 0 85.334H170.667a42.667 42.667 0 1 1 0-85.334z m0 640h682.666a42.667 42.667 0 0 1 0 85.334H170.667a42.667 42.667 0 0 1 0-85.334z m256-213.333h426.666a42.667 42.667 0 0 1 0 85.333H426.667a42.667 42.667 0 0 1 0-85.333z m0-213.333h426.666a42.667 42.667 0 0 1 0 85.333H426.667a42.667 42.667 0 0 1 0-85.333zM289.707 535.04L180.139 651.776a29.227 29.227 0 0 1-43.179 0 33.707 33.707 0 0 1-8.96-23.04V395.264c0-17.963 13.653-32.555 30.55-32.555 8.106 0 15.871 3.414 21.589 9.558L289.707 488.96a34.133 34.133 0 0 1 0 46.08z" /></svg>