<?xml version="1.0" standalone="no"?><!DOCTYPE svg PUBLIC "-//W3C//DTD SVG 1.1//EN" "http://www.w3.org/Graphics/SVG/1.1/DTD/svg11.dtd"><svg class="icon" width="200px" height="200.00px" viewBox="0 0 1024 1024" version="1.1" xmlns="http://www.w3.org/2000/svg"><path fill="#333333" d="M170.667 149.333h682.666a42.667 42.667 0 0 1 0 85.334H170.667a42.667 42.667 0 1 1 0-85.334z m0 640h682.666a42.667 42.667 0 0 1 0 85.334H170.667a42.667 42.667 0 0 1 0-85.334z m256-213.333h426.666a42.667 42.667 0 0 1 0 85.333H426.667a42.667 42.667 0 0 1 0-85.333z m0-213.333h426.666a42.667 42.667 0 0 1 0 85.333H426.667a42.667 42.667 0 0 1 0-85.333zM136.96 535.04a34.133 34.133 0 0 1 0-46.08l109.568-116.736a29.61 29.61 0 0 1 21.59-9.557c16.853 0 30.549 14.592 30.549 32.554V628.78a33.707 33.707 0 0 1-8.96 23.04 29.227 29.227 0 0 1-43.179 0L136.96 535.04z" /></svg>