<?xml version="1.0" standalone="no"?><!DOCTYPE svg PUBLIC "-//W3C//DTD SVG 1.1//EN" "http://www.w3.org/Graphics/SVG/1.1/DTD/svg11.dtd"><svg class="icon" width="200px" height="200.00px" viewBox="0 0 1024 1024" version="1.1" xmlns="http://www.w3.org/2000/svg"><path fill="#ffffff" d="M799.7 128.4H224.3c-89.5 0-159.9 70.3-159.9 159.9v447.6c0 89.5 70.3 159.9 159.9 159.9h575.5c89.5 0 159.9-70.3 159.9-159.9V288.2c-0.1-89.5-70.5-159.8-160-159.8z m95.9 607.4c0 54.4-41.6 95.9-95.9 95.9H224.3c-54.3 0-95.9-41.6-95.9-95.9V288.2c0-54.3 41.6-95.9 95.9-95.9h575.5c54.3 0 95.9 41.6 95.9 95.9v447.6z m0 0M684.6 483.2L428.9 371.3c-22.4-9.6-44.8 6.4-44.8 28.8v223.8c0 22.4 22.4 38.4 44.8 28.8l255.8-111.9c25.5-9.6 25.5-48-0.1-57.6z m0 0" /></svg>