<?xml version="1.0" standalone="no"?><!DOCTYPE svg PUBLIC "-//W3C//DTD SVG 1.1//EN" "http://www.w3.org/Graphics/SVG/1.1/DTD/svg11.dtd"><svg t="1731296048935" class="icon" viewBox="0 0 1261 1024" version="1.1" xmlns="http://www.w3.org/2000/svg" xmlns:xlink="http://www.w3.org/1999/xlink" width="246.2890625" height="200"><path fill="#333333" d="M662.196495 1023.233272a153.345586 153.345586 0 0 1-151.324212-148.2573c-1.324348-26.556667-1.254646-53.183037 0-79.670002 0.975836-23.280648-8.78252-31.29644-31.226738-27.881016-98.629093 14.428426-191.054659 42.727656-267.100129 112.01198a318.680008 318.680008 0 0 0-54.925601 70.608672c-28.438636 46.003676-58.131918 61.686747-98.55939 51.370771C21.839269 991.727724-0.814056 961.895038 0.022375 910.175754c2.439589-143.726635 36.593833-278.810156 121.003607-397.79239 86.082636-121.630931 204.367844-194.818596 347.885372-228.275815 31.157035-6.970254 45.794568-19.098496 42.448846-53.043632-3.066912-30.878225-0.487918-62.31407-0.627322-93.471105 0-56.598462 25.580832-98.28058 75.696957-122.188551s102.880948-20.144034 147.14206 14.776938q239.288816 188.824178 476.068341 381.063781c69.702539 56.459057 67.82057 153.345586-2.300184 209.73494q-226.602954 182.411544-453.624124 364.335171c-28.299231 22.444218-57.853107 42.936764-91.519433 37.918181z m-556.783882-174.256347c120.306582-132.434824 270.376149-178.15969 436.407597-183.457083 49.97672-1.603158 62.732285 12.964672 63.289905 63.986931 0 45.097543-0.906133 90.195085 1.045538 135.222925a62.732285 62.732285 0 0 0 37.709074 57.713703c24.047376 11.431216 37.151453-5.645906 51.649581-17.216527q219.423593-175.092778 438.080458-351.231094c38.754612-31.29644 39.033422-46.561296-0.487918-78.415357C984.91925 355.482949 835.895222 236.988632 687.289409 117.657886c-17.28623-13.940508-35.896808-23.768566-57.156082-14.428426s-24.674699 31.57525-24.674699 53.113335v155.994282c0 29.762984-13.940508 47.049214-44.052005 52.276904a954.924784 954.924784 0 0 0-94.656048 20.910762C245.793527 447.002382 118.516691 635.338643 105.621721 848.767817z"></path></svg>