<?xml version="1.0" standalone="no"?><!DOCTYPE svg PUBLIC "-//W3C//DTD SVG 1.1//EN" "http://www.w3.org/Graphics/SVG/1.1/DTD/svg11.dtd"><svg class="icon" width="200px" height="200.00px" viewBox="0 0 1024 1024" version="1.1" xmlns="http://www.w3.org/2000/svg"><path fill="#333333" d="M604.31 852.62a75.44 75.44 0 0 1-75.4-75.38v-80.66c-50.81 0.47-121.48 7.26-194.51 33.66-47.8 17.28-74.68 35.18-75.88 36l-1.43 1-1.41 0.74c-23.26 12.74-46.07 17.55-67.81 14.3-20.18-3-38.25-12.93-52.27-28.7-30.31-34.06-21.93-81.77-11.79-105.75A427 427 0 0 1 215 495.31c34.08-36.67 75.45-68.39 123-94.26 73.85-40.21 146.68-58 190.93-65.6v-68.52A75.35 75.35 0 0 1 657 213.13L890.75 442.3a111.72 111.72 0 0 1 0 159.58L657 831.05a75.22 75.22 0 0 1-52.69 21.57z m-57.85-221A47.41 47.41 0 0 1 593.91 679v98.21a10.35 10.35 0 0 0 17.59 7.39l233.75-229.13a46.75 46.75 0 0 0 0-66.76L611.5 259.54a10.35 10.35 0 0 0-17.59 7.39v83.52a47.66 47.66 0 0 1-40.59 46.92c-37 5.38-110.15 20.42-184.26 60.77C278 507.75 216 579.05 184.9 670.07l-0.55 1.61-0.45 1c-2.34 5.64-8.79 27.55 0.26 37.72 3.3 3.71 13.25 14.9 39.11 1.23 15.89-10.48 132.63-82.85 321.79-80 0.47-0.01 0.94-0.02 1.4-0.02z" /></svg>